<mxfile>
    <diagram id="R2lEEEUBdFMjLlhIrx00" name="Page-1">
        <mxGraphModel dx="1798" dy="1708" grid="1" gridSize="10" guides="1" tooltips="1" connect="1" arrows="1" fold="1" page="1" pageScale="1" pageWidth="850" pageHeight="1100" math="0" shadow="0" extFonts="Permanent Marker^https://fonts.googleapis.com/css?family=Permanent+Marker">
            <root>
                <mxCell id="0"/>
                <mxCell id="1" parent="0"/>
                <mxCell id="RTzOuYfyrBg2ibAIZVm3-22" style="edgeStyle=orthogonalEdgeStyle;rounded=0;orthogonalLoop=1;jettySize=auto;html=1;endArrow=none;endFill=0;startArrow=classic;startFill=1;" parent="1" source="FFf9qLooeu-6CMNKy_Iy-1" target="RTzOuYfyrBg2ibAIZVm3-21" edge="1">
                    <mxGeometry relative="1" as="geometry">
                        <Array as="points">
                            <mxPoint x="660" y="190"/>
                            <mxPoint x="660" y="190"/>
                        </Array>
                    </mxGeometry>
                </mxCell>
                <mxCell id="FFf9qLooeu-6CMNKy_Iy-1" value="Persona" style="swimlane;fontStyle=0;childLayout=stackLayout;horizontal=1;startSize=26;horizontalStack=0;resizeParent=1;resizeParentMax=0;resizeLast=0;collapsible=1;marginBottom=0;align=center;fontSize=14;" parent="1" vertex="1">
                    <mxGeometry x="400" y="105" width="160" height="116" as="geometry"/>
                </mxCell>
                <mxCell id="FFf9qLooeu-6CMNKy_Iy-3" value="id" style="text;strokeColor=none;fillColor=none;spacingLeft=4;spacingRight=4;overflow=hidden;rotatable=0;points=[[0,0.5],[1,0.5]];portConstraint=eastwest;fontSize=12;fontStyle=4" parent="FFf9qLooeu-6CMNKy_Iy-1" vertex="1">
                    <mxGeometry y="26" width="160" height="30" as="geometry"/>
                </mxCell>
                <mxCell id="FFf9qLooeu-6CMNKy_Iy-4" value="nombre" style="text;strokeColor=none;fillColor=none;spacingLeft=4;spacingRight=4;overflow=hidden;rotatable=0;points=[[0,0.5],[1,0.5]];portConstraint=eastwest;fontSize=12;" parent="FFf9qLooeu-6CMNKy_Iy-1" vertex="1">
                    <mxGeometry y="56" width="160" height="30" as="geometry"/>
                </mxCell>
                <mxCell id="O4gCh91EaSXW-Slrrqmf-2" value="email" style="text;strokeColor=none;fillColor=none;spacingLeft=4;spacingRight=4;overflow=hidden;rotatable=0;points=[[0,0.5],[1,0.5]];portConstraint=eastwest;fontSize=12;" parent="FFf9qLooeu-6CMNKy_Iy-1" vertex="1">
                    <mxGeometry y="86" width="160" height="30" as="geometry"/>
                </mxCell>
                <mxCell id="FFf9qLooeu-6CMNKy_Iy-5" value="Voluntario" style="swimlane;fontStyle=0;childLayout=stackLayout;horizontal=1;startSize=26;horizontalStack=0;resizeParent=1;resizeParentMax=0;resizeLast=0;collapsible=1;marginBottom=0;align=center;fontSize=14;" parent="1" vertex="1">
                    <mxGeometry x="300" y="340" width="160" height="506" as="geometry"/>
                </mxCell>
                <mxCell id="FFf9qLooeu-6CMNKy_Iy-6" value="id" style="text;strokeColor=none;fillColor=none;spacingLeft=4;spacingRight=4;overflow=hidden;rotatable=0;points=[[0,0.5],[1,0.5]];portConstraint=eastwest;fontSize=12;fontStyle=4" parent="FFf9qLooeu-6CMNKy_Iy-5" vertex="1">
                    <mxGeometry y="26" width="160" height="30" as="geometry"/>
                </mxCell>
                <mxCell id="FFf9qLooeu-6CMNKy_Iy-7" value="documento_id" style="text;strokeColor=none;fillColor=none;spacingLeft=4;spacingRight=4;overflow=hidden;rotatable=0;points=[[0,0.5],[1,0.5]];portConstraint=eastwest;fontSize=12;" parent="FFf9qLooeu-6CMNKy_Iy-5" vertex="1">
                    <mxGeometry y="56" width="160" height="30" as="geometry"/>
                </mxCell>
                <mxCell id="O4gCh91EaSXW-Slrrqmf-4" value="tipo_documento_id" style="text;strokeColor=none;fillColor=none;spacingLeft=4;spacingRight=4;overflow=hidden;rotatable=0;points=[[0,0.5],[1,0.5]];portConstraint=eastwest;fontSize=12;" parent="FFf9qLooeu-6CMNKy_Iy-5" vertex="1">
                    <mxGeometry y="86" width="160" height="30" as="geometry"/>
                </mxCell>
                <mxCell id="O4gCh91EaSXW-Slrrqmf-84" value="fecha_nacimiento" style="text;strokeColor=none;fillColor=none;spacingLeft=4;spacingRight=4;overflow=hidden;rotatable=0;points=[[0,0.5],[1,0.5]];portConstraint=eastwest;fontSize=12;" parent="FFf9qLooeu-6CMNKy_Iy-5" vertex="1">
                    <mxGeometry y="116" width="160" height="30" as="geometry"/>
                </mxCell>
                <mxCell id="O4gCh91EaSXW-Slrrqmf-85" value="genero" style="text;strokeColor=none;fillColor=none;spacingLeft=4;spacingRight=4;overflow=hidden;rotatable=0;points=[[0,0.5],[1,0.5]];portConstraint=eastwest;fontSize=12;" parent="FFf9qLooeu-6CMNKy_Iy-5" vertex="1">
                    <mxGeometry y="146" width="160" height="30" as="geometry"/>
                </mxCell>
                <mxCell id="O4gCh91EaSXW-Slrrqmf-92" value="direccion" style="text;strokeColor=none;fillColor=none;spacingLeft=4;spacingRight=4;overflow=hidden;rotatable=0;points=[[0,0.5],[1,0.5]];portConstraint=eastwest;fontSize=12;" parent="FFf9qLooeu-6CMNKy_Iy-5" vertex="1">
                    <mxGeometry y="176" width="160" height="30" as="geometry"/>
                </mxCell>
                <mxCell id="O4gCh91EaSXW-Slrrqmf-93" value="ciudad" style="text;strokeColor=none;fillColor=none;spacingLeft=4;spacingRight=4;overflow=hidden;rotatable=0;points=[[0,0.5],[1,0.5]];portConstraint=eastwest;fontSize=12;" parent="FFf9qLooeu-6CMNKy_Iy-5" vertex="1">
                    <mxGeometry y="206" width="160" height="30" as="geometry"/>
                </mxCell>
                <mxCell id="O4gCh91EaSXW-Slrrqmf-94" value="pais" style="text;strokeColor=none;fillColor=none;spacingLeft=4;spacingRight=4;overflow=hidden;rotatable=0;points=[[0,0.5],[1,0.5]];portConstraint=eastwest;fontSize=12;" parent="FFf9qLooeu-6CMNKy_Iy-5" vertex="1">
                    <mxGeometry y="236" width="160" height="30" as="geometry"/>
                </mxCell>
                <mxCell id="O4gCh91EaSXW-Slrrqmf-96" value="telefono" style="text;strokeColor=none;fillColor=none;spacingLeft=4;spacingRight=4;overflow=hidden;rotatable=0;points=[[0,0.5],[1,0.5]];portConstraint=eastwest;fontSize=12;" parent="FFf9qLooeu-6CMNKy_Iy-5" vertex="1">
                    <mxGeometry y="266" width="160" height="30" as="geometry"/>
                </mxCell>
                <mxCell id="O4gCh91EaSXW-Slrrqmf-97" value="conocimientos" style="text;strokeColor=none;fillColor=none;spacingLeft=4;spacingRight=4;overflow=hidden;rotatable=0;points=[[0,0.5],[1,0.5]];portConstraint=eastwest;fontSize=12;" parent="FFf9qLooeu-6CMNKy_Iy-5" vertex="1">
                    <mxGeometry y="296" width="160" height="30" as="geometry"/>
                </mxCell>
                <mxCell id="O4gCh91EaSXW-Slrrqmf-98" value="preferencias" style="text;strokeColor=none;fillColor=none;spacingLeft=4;spacingRight=4;overflow=hidden;rotatable=0;points=[[0,0.5],[1,0.5]];portConstraint=eastwest;fontSize=12;" parent="FFf9qLooeu-6CMNKy_Iy-5" vertex="1">
                    <mxGeometry y="326" width="160" height="30" as="geometry"/>
                </mxCell>
                <mxCell id="O4gCh91EaSXW-Slrrqmf-99" value="idiomas" style="text;strokeColor=none;fillColor=none;spacingLeft=4;spacingRight=4;overflow=hidden;rotatable=0;points=[[0,0.5],[1,0.5]];portConstraint=eastwest;fontSize=12;" parent="FFf9qLooeu-6CMNKy_Iy-5" vertex="1">
                    <mxGeometry y="356" width="160" height="30" as="geometry"/>
                </mxCell>
                <mxCell id="O4gCh91EaSXW-Slrrqmf-100" value="disponibilidad_maÃ±anas" style="text;strokeColor=none;fillColor=none;spacingLeft=4;spacingRight=4;overflow=hidden;rotatable=0;points=[[0,0.5],[1,0.5]];portConstraint=eastwest;fontSize=12;" parent="FFf9qLooeu-6CMNKy_Iy-5" vertex="1">
                    <mxGeometry y="386" width="160" height="30" as="geometry"/>
                </mxCell>
                <mxCell id="O4gCh91EaSXW-Slrrqmf-102" value="disponibilidad_tardes" style="text;strokeColor=none;fillColor=none;spacingLeft=4;spacingRight=4;overflow=hidden;rotatable=0;points=[[0,0.5],[1,0.5]];portConstraint=eastwest;fontSize=12;" parent="FFf9qLooeu-6CMNKy_Iy-5" vertex="1">
                    <mxGeometry y="416" width="160" height="30" as="geometry"/>
                </mxCell>
                <mxCell id="O4gCh91EaSXW-Slrrqmf-103" value="disponibilidad_fines_de_..." style="text;strokeColor=none;fillColor=none;spacingLeft=4;spacingRight=4;overflow=hidden;rotatable=0;points=[[0,0.5],[1,0.5]];portConstraint=eastwest;fontSize=12;" parent="FFf9qLooeu-6CMNKy_Iy-5" vertex="1">
                    <mxGeometry y="446" width="160" height="30" as="geometry"/>
                </mxCell>
                <mxCell id="O4gCh91EaSXW-Slrrqmf-114" value="experiencia_previa" style="text;strokeColor=none;fillColor=none;spacingLeft=4;spacingRight=4;overflow=hidden;rotatable=0;points=[[0,0.5],[1,0.5]];portConstraint=eastwest;fontSize=12;" parent="FFf9qLooeu-6CMNKy_Iy-5" vertex="1">
                    <mxGeometry y="476" width="160" height="30" as="geometry"/>
                </mxCell>
                <mxCell id="FFf9qLooeu-6CMNKy_Iy-8" value="Socio" style="swimlane;fontStyle=0;childLayout=stackLayout;horizontal=1;startSize=26;horizontalStack=0;resizeParent=1;resizeParentMax=0;resizeLast=0;collapsible=1;marginBottom=0;align=center;fontSize=14;" parent="1" vertex="1">
                    <mxGeometry x="500" y="340" width="160" height="146" as="geometry"/>
                </mxCell>
                <mxCell id="FFf9qLooeu-6CMNKy_Iy-10" value="id" style="text;strokeColor=none;fillColor=none;spacingLeft=4;spacingRight=4;overflow=hidden;rotatable=0;points=[[0,0.5],[1,0.5]];portConstraint=eastwest;fontSize=12;fontStyle=4" parent="FFf9qLooeu-6CMNKy_Iy-8" vertex="1">
                    <mxGeometry y="26" width="160" height="30" as="geometry"/>
                </mxCell>
                <mxCell id="O4gCh91EaSXW-Slrrqmf-115" value="fecha_inicio" style="text;strokeColor=none;fillColor=none;spacingLeft=4;spacingRight=4;overflow=hidden;rotatable=0;points=[[0,0.5],[1,0.5]];portConstraint=eastwest;fontSize=12;" parent="FFf9qLooeu-6CMNKy_Iy-8" vertex="1">
                    <mxGeometry y="56" width="160" height="30" as="geometry"/>
                </mxCell>
                <mxCell id="O4gCh91EaSXW-Slrrqmf-116" value="couta" style="text;strokeColor=none;fillColor=none;spacingLeft=4;spacingRight=4;overflow=hidden;rotatable=0;points=[[0,0.5],[1,0.5]];portConstraint=eastwest;fontSize=12;" parent="FFf9qLooeu-6CMNKy_Iy-8" vertex="1">
                    <mxGeometry y="86" width="160" height="30" as="geometry"/>
                </mxCell>
                <mxCell id="O4gCh91EaSXW-Slrrqmf-117" value="newsletter" style="text;strokeColor=none;fillColor=none;spacingLeft=4;spacingRight=4;overflow=hidden;rotatable=0;points=[[0,0.5],[1,0.5]];portConstraint=eastwest;fontSize=12;" parent="FFf9qLooeu-6CMNKy_Iy-8" vertex="1">
                    <mxGeometry y="116" width="160" height="30" as="geometry"/>
                </mxCell>
                <mxCell id="FFf9qLooeu-6CMNKy_Iy-11" value="Colaborador" style="swimlane;fontStyle=0;childLayout=stackLayout;horizontal=1;startSize=26;horizontalStack=0;resizeParent=1;resizeParentMax=0;resizeLast=0;collapsible=1;marginBottom=0;align=center;fontSize=14;" parent="1" vertex="1">
                    <mxGeometry x="700" y="340" width="160" height="326" as="geometry"/>
                </mxCell>
                <mxCell id="FFf9qLooeu-6CMNKy_Iy-13" value="id" style="text;strokeColor=none;fillColor=none;spacingLeft=4;spacingRight=4;overflow=hidden;rotatable=0;points=[[0,0.5],[1,0.5]];portConstraint=eastwest;fontSize=12;fontStyle=4" parent="FFf9qLooeu-6CMNKy_Iy-11" vertex="1">
                    <mxGeometry y="26" width="160" height="30" as="geometry"/>
                </mxCell>
                <mxCell id="O4gCh91EaSXW-Slrrqmf-7" value="documento_id" style="text;strokeColor=none;fillColor=none;spacingLeft=4;spacingRight=4;overflow=hidden;rotatable=0;points=[[0,0.5],[1,0.5]];portConstraint=eastwest;fontSize=12;" parent="FFf9qLooeu-6CMNKy_Iy-11" vertex="1">
                    <mxGeometry y="56" width="160" height="30" as="geometry"/>
                </mxCell>
                <mxCell id="O4gCh91EaSXW-Slrrqmf-8" value="tipo_documento_id" style="text;strokeColor=none;fillColor=none;spacingLeft=4;spacingRight=4;overflow=hidden;rotatable=0;points=[[0,0.5],[1,0.5]];portConstraint=eastwest;fontSize=12;" parent="FFf9qLooeu-6CMNKy_Iy-11" vertex="1">
                    <mxGeometry y="86" width="160" height="30" as="geometry"/>
                </mxCell>
                <mxCell id="O4gCh91EaSXW-Slrrqmf-121" value="fecha_nacimiento" style="text;strokeColor=none;fillColor=none;spacingLeft=4;spacingRight=4;overflow=hidden;rotatable=0;points=[[0,0.5],[1,0.5]];portConstraint=eastwest;fontSize=12;" parent="FFf9qLooeu-6CMNKy_Iy-11" vertex="1">
                    <mxGeometry y="116" width="160" height="30" as="geometry"/>
                </mxCell>
                <mxCell id="O4gCh91EaSXW-Slrrqmf-122" value="genero" style="text;strokeColor=none;fillColor=none;spacingLeft=4;spacingRight=4;overflow=hidden;rotatable=0;points=[[0,0.5],[1,0.5]];portConstraint=eastwest;fontSize=12;" parent="FFf9qLooeu-6CMNKy_Iy-11" vertex="1">
                    <mxGeometry y="146" width="160" height="30" as="geometry"/>
                </mxCell>
                <mxCell id="O4gCh91EaSXW-Slrrqmf-123" value="direccion" style="text;strokeColor=none;fillColor=none;spacingLeft=4;spacingRight=4;overflow=hidden;rotatable=0;points=[[0,0.5],[1,0.5]];portConstraint=eastwest;fontSize=12;" parent="FFf9qLooeu-6CMNKy_Iy-11" vertex="1">
                    <mxGeometry y="176" width="160" height="30" as="geometry"/>
                </mxCell>
                <mxCell id="O4gCh91EaSXW-Slrrqmf-124" value="ciudad" style="text;strokeColor=none;fillColor=none;spacingLeft=4;spacingRight=4;overflow=hidden;rotatable=0;points=[[0,0.5],[1,0.5]];portConstraint=eastwest;fontSize=12;" parent="FFf9qLooeu-6CMNKy_Iy-11" vertex="1">
                    <mxGeometry y="206" width="160" height="30" as="geometry"/>
                </mxCell>
                <mxCell id="O4gCh91EaSXW-Slrrqmf-125" value="pais" style="text;strokeColor=none;fillColor=none;spacingLeft=4;spacingRight=4;overflow=hidden;rotatable=0;points=[[0,0.5],[1,0.5]];portConstraint=eastwest;fontSize=12;" parent="FFf9qLooeu-6CMNKy_Iy-11" vertex="1">
                    <mxGeometry y="236" width="160" height="30" as="geometry"/>
                </mxCell>
                <mxCell id="O4gCh91EaSXW-Slrrqmf-126" value="edad" style="text;strokeColor=none;fillColor=none;spacingLeft=4;spacingRight=4;overflow=hidden;rotatable=0;points=[[0,0.5],[1,0.5]];portConstraint=eastwest;fontSize=12;" parent="FFf9qLooeu-6CMNKy_Iy-11" vertex="1">
                    <mxGeometry y="266" width="160" height="30" as="geometry"/>
                </mxCell>
                <mxCell id="O4gCh91EaSXW-Slrrqmf-127" value="telefono" style="text;strokeColor=none;fillColor=none;spacingLeft=4;spacingRight=4;overflow=hidden;rotatable=0;points=[[0,0.5],[1,0.5]];portConstraint=eastwest;fontSize=12;" parent="FFf9qLooeu-6CMNKy_Iy-11" vertex="1">
                    <mxGeometry y="296" width="160" height="30" as="geometry"/>
                </mxCell>
                <mxCell id="FFf9qLooeu-6CMNKy_Iy-14" value="Residente" style="swimlane;fontStyle=0;childLayout=stackLayout;horizontal=1;startSize=26;horizontalStack=0;resizeParent=1;resizeParentMax=0;resizeLast=0;collapsible=1;marginBottom=0;align=center;fontSize=14;" parent="1" vertex="1">
                    <mxGeometry x="100" y="340" width="160" height="596" as="geometry"/>
                </mxCell>
                <mxCell id="FFf9qLooeu-6CMNKy_Iy-15" value="id" style="text;strokeColor=none;fillColor=none;spacingLeft=4;spacingRight=4;overflow=hidden;rotatable=0;points=[[0,0.5],[1,0.5]];portConstraint=eastwest;fontSize=12;fontStyle=4" parent="FFf9qLooeu-6CMNKy_Iy-14" vertex="1">
                    <mxGeometry y="26" width="160" height="30" as="geometry"/>
                </mxCell>
                <mxCell id="FFf9qLooeu-6CMNKy_Iy-16" value="documento_id" style="text;strokeColor=none;fillColor=none;spacingLeft=4;spacingRight=4;overflow=hidden;rotatable=0;points=[[0,0.5],[1,0.5]];portConstraint=eastwest;fontSize=12;" parent="FFf9qLooeu-6CMNKy_Iy-14" vertex="1">
                    <mxGeometry y="56" width="160" height="30" as="geometry"/>
                </mxCell>
                <mxCell id="O4gCh91EaSXW-Slrrqmf-3" value="tipo_documento_id" style="text;strokeColor=none;fillColor=none;spacingLeft=4;spacingRight=4;overflow=hidden;rotatable=0;points=[[0,0.5],[1,0.5]];portConstraint=eastwest;fontSize=12;" parent="FFf9qLooeu-6CMNKy_Iy-14" vertex="1">
                    <mxGeometry y="86" width="160" height="30" as="geometry"/>
                </mxCell>
                <mxCell id="O4gCh91EaSXW-Slrrqmf-9" value="fecha_nacimiento" style="text;strokeColor=none;fillColor=none;spacingLeft=4;spacingRight=4;overflow=hidden;rotatable=0;points=[[0,0.5],[1,0.5]];portConstraint=eastwest;fontSize=12;" parent="FFf9qLooeu-6CMNKy_Iy-14" vertex="1">
                    <mxGeometry y="116" width="160" height="30" as="geometry"/>
                </mxCell>
                <mxCell id="O4gCh91EaSXW-Slrrqmf-10" value="genero" style="text;strokeColor=none;fillColor=none;spacingLeft=4;spacingRight=4;overflow=hidden;rotatable=0;points=[[0,0.5],[1,0.5]];portConstraint=eastwest;fontSize=12;" parent="FFf9qLooeu-6CMNKy_Iy-14" vertex="1">
                    <mxGeometry y="146" width="160" height="30" as="geometry"/>
                </mxCell>
                <mxCell id="O4gCh91EaSXW-Slrrqmf-11" value="telefono" style="text;strokeColor=none;fillColor=none;spacingLeft=4;spacingRight=4;overflow=hidden;rotatable=0;points=[[0,0.5],[1,0.5]];portConstraint=eastwest;fontSize=12;" parent="FFf9qLooeu-6CMNKy_Iy-14" vertex="1">
                    <mxGeometry y="176" width="160" height="30" as="geometry"/>
                </mxCell>
                <mxCell id="O4gCh91EaSXW-Slrrqmf-21" value="pais_nacimiento" style="text;strokeColor=none;fillColor=none;spacingLeft=4;spacingRight=4;overflow=hidden;rotatable=0;points=[[0,0.5],[1,0.5]];portConstraint=eastwest;fontSize=12;" parent="FFf9qLooeu-6CMNKy_Iy-14" vertex="1">
                    <mxGeometry y="206" width="160" height="30" as="geometry"/>
                </mxCell>
                <mxCell id="O4gCh91EaSXW-Slrrqmf-22" value="pais_procedencia" style="text;strokeColor=none;fillColor=none;spacingLeft=4;spacingRight=4;overflow=hidden;rotatable=0;points=[[0,0.5],[1,0.5]];portConstraint=eastwest;fontSize=12;" parent="FFf9qLooeu-6CMNKy_Iy-14" vertex="1">
                    <mxGeometry y="236" width="160" height="30" as="geometry"/>
                </mxCell>
                <mxCell id="O4gCh91EaSXW-Slrrqmf-28" value="pais_procedencia" style="text;strokeColor=none;fillColor=none;spacingLeft=4;spacingRight=4;overflow=hidden;rotatable=0;points=[[0,0.5],[1,0.5]];portConstraint=eastwest;fontSize=12;" parent="FFf9qLooeu-6CMNKy_Iy-14" vertex="1">
                    <mxGeometry y="266" width="160" height="30" as="geometry"/>
                </mxCell>
                <mxCell id="O4gCh91EaSXW-Slrrqmf-31" value="estado_civil" style="text;strokeColor=none;fillColor=none;spacingLeft=4;spacingRight=4;overflow=hidden;rotatable=0;points=[[0,0.5],[1,0.5]];portConstraint=eastwest;fontSize=12;" parent="FFf9qLooeu-6CMNKy_Iy-14" vertex="1">
                    <mxGeometry y="296" width="160" height="30" as="geometry"/>
                </mxCell>
                <mxCell id="O4gCh91EaSXW-Slrrqmf-35" value="formacion" style="text;strokeColor=none;fillColor=none;spacingLeft=4;spacingRight=4;overflow=hidden;rotatable=0;points=[[0,0.5],[1,0.5]];portConstraint=eastwest;fontSize=12;" parent="FFf9qLooeu-6CMNKy_Iy-14" vertex="1">
                    <mxGeometry y="326" width="160" height="30" as="geometry"/>
                </mxCell>
                <mxCell id="O4gCh91EaSXW-Slrrqmf-36" value="ocupacion" style="text;strokeColor=none;fillColor=none;spacingLeft=4;spacingRight=4;overflow=hidden;rotatable=0;points=[[0,0.5],[1,0.5]];portConstraint=eastwest;fontSize=12;" parent="FFf9qLooeu-6CMNKy_Iy-14" vertex="1">
                    <mxGeometry y="356" width="160" height="30" as="geometry"/>
                </mxCell>
                <mxCell id="O4gCh91EaSXW-Slrrqmf-37" value="factores_riesgo" style="text;strokeColor=none;fillColor=none;spacingLeft=4;spacingRight=4;overflow=hidden;rotatable=0;points=[[0,0.5],[1,0.5]];portConstraint=eastwest;fontSize=12;" parent="FFf9qLooeu-6CMNKy_Iy-14" vertex="1">
                    <mxGeometry y="386" width="160" height="30" as="geometry"/>
                </mxCell>
                <mxCell id="O4gCh91EaSXW-Slrrqmf-53" value="permiso_trabajo" style="text;strokeColor=none;fillColor=none;spacingLeft=4;spacingRight=4;overflow=hidden;rotatable=0;points=[[0,0.5],[1,0.5]];portConstraint=eastwest;fontSize=12;" parent="FFf9qLooeu-6CMNKy_Iy-14" vertex="1">
                    <mxGeometry y="416" width="160" height="30" as="geometry"/>
                </mxCell>
                <mxCell id="O4gCh91EaSXW-Slrrqmf-70" value="estado_documentacion" style="text;strokeColor=none;fillColor=none;spacingLeft=4;spacingRight=4;overflow=hidden;rotatable=0;points=[[0,0.5],[1,0.5]];portConstraint=eastwest;fontSize=12;" parent="FFf9qLooeu-6CMNKy_Iy-14" vertex="1">
                    <mxGeometry y="446" width="160" height="30" as="geometry"/>
                </mxCell>
                <mxCell id="O4gCh91EaSXW-Slrrqmf-71" value="estado_empadronamiento" style="text;strokeColor=none;fillColor=none;spacingLeft=4;spacingRight=4;overflow=hidden;rotatable=0;points=[[0,0.5],[1,0.5]];portConstraint=eastwest;fontSize=12;" parent="FFf9qLooeu-6CMNKy_Iy-14" vertex="1">
                    <mxGeometry y="476" width="160" height="30" as="geometry"/>
                </mxCell>
                <mxCell id="O4gCh91EaSXW-Slrrqmf-72" value="tarjeta_sanitaria" style="text;strokeColor=none;fillColor=none;spacingLeft=4;spacingRight=4;overflow=hidden;rotatable=0;points=[[0,0.5],[1,0.5]];portConstraint=eastwest;fontSize=12;" parent="FFf9qLooeu-6CMNKy_Iy-14" vertex="1">
                    <mxGeometry y="506" width="160" height="30" as="geometry"/>
                </mxCell>
                <mxCell id="O4gCh91EaSXW-Slrrqmf-76" value="observaciones" style="text;strokeColor=none;fillColor=none;spacingLeft=4;spacingRight=4;overflow=hidden;rotatable=0;points=[[0,0.5],[1,0.5]];portConstraint=eastwest;fontSize=12;" parent="FFf9qLooeu-6CMNKy_Iy-14" vertex="1">
                    <mxGeometry y="536" width="160" height="30" as="geometry"/>
                </mxCell>
                <mxCell id="O4gCh91EaSXW-Slrrqmf-77" value="colectivos" style="text;strokeColor=none;fillColor=none;spacingLeft=4;spacingRight=4;overflow=hidden;rotatable=0;points=[[0,0.5],[1,0.5]];portConstraint=eastwest;fontSize=12;" parent="FFf9qLooeu-6CMNKy_Iy-14" vertex="1">
                    <mxGeometry y="566" width="160" height="30" as="geometry"/>
                </mxCell>
                <mxCell id="FFf9qLooeu-6CMNKy_Iy-19" style="edgeStyle=orthogonalEdgeStyle;rounded=0;orthogonalLoop=1;jettySize=auto;html=1;endArrow=none;endFill=0;" parent="1" source="FFf9qLooeu-6CMNKy_Iy-17" target="FFf9qLooeu-6CMNKy_Iy-1" edge="1">
                    <mxGeometry relative="1" as="geometry"/>
                </mxCell>
                <mxCell id="FFf9qLooeu-6CMNKy_Iy-20" style="edgeStyle=orthogonalEdgeStyle;rounded=0;orthogonalLoop=1;jettySize=auto;html=1;endArrow=none;endFill=0;" parent="1" source="FFf9qLooeu-6CMNKy_Iy-17" target="FFf9qLooeu-6CMNKy_Iy-14" edge="1">
                    <mxGeometry relative="1" as="geometry"/>
                </mxCell>
                <mxCell id="FFf9qLooeu-6CMNKy_Iy-21" style="edgeStyle=orthogonalEdgeStyle;rounded=0;orthogonalLoop=1;jettySize=auto;html=1;endArrow=none;endFill=0;" parent="1" source="FFf9qLooeu-6CMNKy_Iy-17" target="FFf9qLooeu-6CMNKy_Iy-5" edge="1">
                    <mxGeometry relative="1" as="geometry">
                        <Array as="points">
                            <mxPoint x="380" y="270"/>
                        </Array>
                    </mxGeometry>
                </mxCell>
                <mxCell id="FFf9qLooeu-6CMNKy_Iy-22" style="edgeStyle=orthogonalEdgeStyle;rounded=0;orthogonalLoop=1;jettySize=auto;html=1;endArrow=none;endFill=0;" parent="1" source="FFf9qLooeu-6CMNKy_Iy-17" target="FFf9qLooeu-6CMNKy_Iy-8" edge="1">
                    <mxGeometry relative="1" as="geometry">
                        <Array as="points">
                            <mxPoint x="580" y="270"/>
                        </Array>
                    </mxGeometry>
                </mxCell>
                <mxCell id="FFf9qLooeu-6CMNKy_Iy-23" style="edgeStyle=orthogonalEdgeStyle;rounded=0;orthogonalLoop=1;jettySize=auto;html=1;endArrow=none;endFill=0;" parent="1" source="FFf9qLooeu-6CMNKy_Iy-17" target="FFf9qLooeu-6CMNKy_Iy-11" edge="1">
                    <mxGeometry relative="1" as="geometry"/>
                </mxCell>
                <mxCell id="FFf9qLooeu-6CMNKy_Iy-17" value="" style="triangle;whiteSpace=wrap;html=1;rotation=90;" parent="1" vertex="1">
                    <mxGeometry x="450" y="230" width="60" height="80" as="geometry"/>
                </mxCell>
                <mxCell id="FFf9qLooeu-6CMNKy_Iy-28" style="edgeStyle=orthogonalEdgeStyle;rounded=0;orthogonalLoop=1;jettySize=auto;html=1;endArrow=none;endFill=0;" parent="1" source="FFf9qLooeu-6CMNKy_Iy-24" target="FFf9qLooeu-6CMNKy_Iy-27" edge="1">
                    <mxGeometry relative="1" as="geometry"/>
                </mxCell>
                <mxCell id="FFf9qLooeu-6CMNKy_Iy-24" value="alta_baja" style="swimlane;fontStyle=0;childLayout=stackLayout;horizontal=1;startSize=26;horizontalStack=0;resizeParent=1;resizeParentMax=0;resizeLast=0;collapsible=1;marginBottom=0;align=center;fontSize=14;" parent="1" vertex="1">
                    <mxGeometry x="-305" y="250" width="160" height="116" as="geometry"/>
                </mxCell>
                <mxCell id="FFf9qLooeu-6CMNKy_Iy-25" value="Tipo" style="text;strokeColor=none;fillColor=none;spacingLeft=4;spacingRight=4;overflow=hidden;rotatable=0;points=[[0,0.5],[1,0.5]];portConstraint=eastwest;fontSize=12;fontStyle=4" parent="FFf9qLooeu-6CMNKy_Iy-24" vertex="1">
                    <mxGeometry y="26" width="160" height="30" as="geometry"/>
                </mxCell>
                <mxCell id="FFf9qLooeu-6CMNKy_Iy-26" value="Fecha" style="text;strokeColor=none;fillColor=none;spacingLeft=4;spacingRight=4;overflow=hidden;rotatable=0;points=[[0,0.5],[1,0.5]];portConstraint=eastwest;fontSize=12;fontStyle=4" parent="FFf9qLooeu-6CMNKy_Iy-24" vertex="1">
                    <mxGeometry y="56" width="160" height="30" as="geometry"/>
                </mxCell>
                <mxCell id="O4gCh91EaSXW-Slrrqmf-30" value="motivo" style="text;strokeColor=none;fillColor=none;spacingLeft=4;spacingRight=4;overflow=hidden;rotatable=0;points=[[0,0.5],[1,0.5]];portConstraint=eastwest;fontSize=12;" parent="FFf9qLooeu-6CMNKy_Iy-24" vertex="1">
                    <mxGeometry y="86" width="160" height="30" as="geometry"/>
                </mxCell>
                <mxCell id="FFf9qLooeu-6CMNKy_Iy-30" style="edgeStyle=orthogonalEdgeStyle;rounded=0;orthogonalLoop=1;jettySize=auto;html=1;endArrow=classic;endFill=1;" parent="1" source="FFf9qLooeu-6CMNKy_Iy-27" target="FFf9qLooeu-6CMNKy_Iy-1" edge="1">
                    <mxGeometry relative="1" as="geometry">
                        <mxPoint x="80" y="440" as="targetPoint"/>
                        <Array as="points">
                            <mxPoint x="-40" y="200"/>
                        </Array>
                    </mxGeometry>
                </mxCell>
                <mxCell id="FFf9qLooeu-6CMNKy_Iy-27" value="dado_de" style="rhombus;whiteSpace=wrap;html=1;" parent="1" vertex="1">
                    <mxGeometry x="-80" y="268" width="80" height="80" as="geometry"/>
                </mxCell>
                <mxCell id="FFf9qLooeu-6CMNKy_Iy-31" value="fotografÃ­a" style="swimlane;fontStyle=0;childLayout=stackLayout;horizontal=1;startSize=26;horizontalStack=0;resizeParent=1;resizeParentMax=0;resizeLast=0;collapsible=1;marginBottom=0;align=center;fontSize=14;" parent="1" vertex="1">
                    <mxGeometry x="-220" y="105" width="160" height="86" as="geometry"/>
                </mxCell>
                <mxCell id="FFf9qLooeu-6CMNKy_Iy-32" value="ruta" style="text;strokeColor=none;fillColor=none;spacingLeft=4;spacingRight=4;overflow=hidden;rotatable=0;points=[[0,0.5],[1,0.5]];portConstraint=eastwest;fontSize=12;fontStyle=4" parent="FFf9qLooeu-6CMNKy_Iy-31" vertex="1">
                    <mxGeometry y="26" width="160" height="30" as="geometry"/>
                </mxCell>
                <mxCell id="FFf9qLooeu-6CMNKy_Iy-35" value="tamaÃ±o" style="text;strokeColor=none;fillColor=none;spacingLeft=4;spacingRight=4;overflow=hidden;rotatable=0;points=[[0,0.5],[1,0.5]];portConstraint=eastwest;fontSize=12;" parent="FFf9qLooeu-6CMNKy_Iy-31" vertex="1">
                    <mxGeometry y="56" width="160" height="30" as="geometry"/>
                </mxCell>
                <mxCell id="FFf9qLooeu-6CMNKy_Iy-37" style="edgeStyle=orthogonalEdgeStyle;rounded=0;orthogonalLoop=1;jettySize=auto;html=1;endArrow=classic;endFill=1;" parent="1" source="FFf9qLooeu-6CMNKy_Iy-36" target="FFf9qLooeu-6CMNKy_Iy-1" edge="1">
                    <mxGeometry relative="1" as="geometry">
                        <Array as="points">
                            <mxPoint x="710" y="160"/>
                        </Array>
                    </mxGeometry>
                </mxCell>
                <mxCell id="FFf9qLooeu-6CMNKy_Iy-38" style="edgeStyle=orthogonalEdgeStyle;rounded=0;orthogonalLoop=1;jettySize=auto;html=1;endArrow=none;endFill=0;" parent="1" source="FFf9qLooeu-6CMNKy_Iy-36" target="Ze54EGar3hF_JNQqJty--6" edge="1">
                    <mxGeometry relative="1" as="geometry">
                        <Array as="points">
                            <mxPoint x="710" y="-10"/>
                        </Array>
                    </mxGeometry>
                </mxCell>
                <mxCell id="FFf9qLooeu-6CMNKy_Iy-36" value="pertenece" style="rhombus;whiteSpace=wrap;html=1;" parent="1" vertex="1">
                    <mxGeometry x="670" y="50" width="80" height="80" as="geometry"/>
                </mxCell>
                <mxCell id="FFf9qLooeu-6CMNKy_Iy-39" value="Cita" style="swimlane;fontStyle=0;childLayout=stackLayout;horizontal=1;startSize=26;horizontalStack=0;resizeParent=1;resizeParentMax=0;resizeLast=0;collapsible=1;marginBottom=0;align=center;fontSize=14;" parent="1" vertex="1">
                    <mxGeometry x="-380" y="450" width="160" height="146" as="geometry"/>
                </mxCell>
                <mxCell id="RTzOuYfyrBg2ibAIZVm3-7" value="id" style="text;strokeColor=none;fillColor=none;spacingLeft=4;spacingRight=4;overflow=hidden;rotatable=0;points=[[0,0.5],[1,0.5]];portConstraint=eastwest;fontSize=12;fontStyle=4" parent="FFf9qLooeu-6CMNKy_Iy-39" vertex="1">
                    <mxGeometry y="26" width="160" height="30" as="geometry"/>
                </mxCell>
                <mxCell id="FFf9qLooeu-6CMNKy_Iy-40" value="titulo" style="text;strokeColor=none;fillColor=none;spacingLeft=4;spacingRight=4;overflow=hidden;rotatable=0;points=[[0,0.5],[1,0.5]];portConstraint=eastwest;fontSize=12;" parent="FFf9qLooeu-6CMNKy_Iy-39" vertex="1">
                    <mxGeometry y="56" width="160" height="30" as="geometry"/>
                </mxCell>
                <mxCell id="O4gCh91EaSXW-Slrrqmf-128" value="descripcion" style="text;strokeColor=none;fillColor=none;spacingLeft=4;spacingRight=4;overflow=hidden;rotatable=0;points=[[0,0.5],[1,0.5]];portConstraint=eastwest;fontSize=12;" parent="FFf9qLooeu-6CMNKy_Iy-39" vertex="1">
                    <mxGeometry y="86" width="160" height="30" as="geometry"/>
                </mxCell>
                <mxCell id="FFf9qLooeu-6CMNKy_Iy-41" value="fecha" style="text;strokeColor=none;fillColor=none;spacingLeft=4;spacingRight=4;overflow=hidden;rotatable=0;points=[[0,0.5],[1,0.5]];portConstraint=eastwest;fontSize=12;" parent="FFf9qLooeu-6CMNKy_Iy-39" vertex="1">
                    <mxGeometry y="116" width="160" height="30" as="geometry"/>
                </mxCell>
                <mxCell id="FFf9qLooeu-6CMNKy_Iy-44" style="edgeStyle=orthogonalEdgeStyle;rounded=0;orthogonalLoop=1;jettySize=auto;html=1;endArrow=none;endFill=0;" parent="1" source="FFf9qLooeu-6CMNKy_Iy-43" target="FFf9qLooeu-6CMNKy_Iy-39" edge="1">
                    <mxGeometry relative="1" as="geometry"/>
                </mxCell>
                <mxCell id="FFf9qLooeu-6CMNKy_Iy-45" style="edgeStyle=orthogonalEdgeStyle;rounded=0;orthogonalLoop=1;jettySize=auto;html=1;endArrow=classic;endFill=1;" parent="1" source="FFf9qLooeu-6CMNKy_Iy-43" target="FFf9qLooeu-6CMNKy_Iy-14" edge="1">
                    <mxGeometry relative="1" as="geometry">
                        <Array as="points">
                            <mxPoint x="100" y="523"/>
                            <mxPoint x="100" y="523"/>
                        </Array>
                    </mxGeometry>
                </mxCell>
                <mxCell id="FFf9qLooeu-6CMNKy_Iy-43" value="concreta" style="rhombus;whiteSpace=wrap;html=1;" parent="1" vertex="1">
                    <mxGeometry x="-110" y="483" width="80" height="80" as="geometry"/>
                </mxCell>
                <mxCell id="FFf9qLooeu-6CMNKy_Iy-46" value="HabitaciÃ³n" style="swimlane;fontStyle=0;childLayout=stackLayout;horizontal=1;startSize=26;horizontalStack=0;resizeParent=1;resizeParentMax=0;resizeLast=0;collapsible=1;marginBottom=0;align=center;fontSize=14;" parent="1" vertex="1">
                    <mxGeometry x="-90" y="1230" width="160" height="116" as="geometry"/>
                </mxCell>
                <mxCell id="FFf9qLooeu-6CMNKy_Iy-47" value="id" style="text;strokeColor=none;fillColor=none;spacingLeft=4;spacingRight=4;overflow=hidden;rotatable=0;points=[[0,0.5],[1,0.5]];portConstraint=eastwest;fontSize=12;fontStyle=4" parent="FFf9qLooeu-6CMNKy_Iy-46" vertex="1">
                    <mxGeometry y="26" width="160" height="30" as="geometry"/>
                </mxCell>
                <mxCell id="FFf9qLooeu-6CMNKy_Iy-48" value="plazas" style="text;strokeColor=none;fillColor=none;spacingLeft=4;spacingRight=4;overflow=hidden;rotatable=0;points=[[0,0.5],[1,0.5]];portConstraint=eastwest;fontSize=12;" parent="FFf9qLooeu-6CMNKy_Iy-46" vertex="1">
                    <mxGeometry y="56" width="160" height="30" as="geometry"/>
                </mxCell>
                <mxCell id="FFf9qLooeu-6CMNKy_Iy-49" value="ocupacion" style="text;strokeColor=none;fillColor=none;spacingLeft=4;spacingRight=4;overflow=hidden;rotatable=0;points=[[0,0.5],[1,0.5]];portConstraint=eastwest;fontSize=12;" parent="FFf9qLooeu-6CMNKy_Iy-46" vertex="1">
                    <mxGeometry y="86" width="160" height="30" as="geometry"/>
                </mxCell>
                <mxCell id="nmJCja0T0oJo21-9fYm4-6" style="edgeStyle=orthogonalEdgeStyle;rounded=0;orthogonalLoop=1;jettySize=auto;html=1;entryX=0.5;entryY=1;entryDx=0;entryDy=0;startArrow=classic;startFill=1;endArrow=none;endFill=0;" parent="1" source="FFf9qLooeu-6CMNKy_Iy-50" target="nmJCja0T0oJo21-9fYm4-7" edge="1">
                    <mxGeometry relative="1" as="geometry">
                        <mxPoint x="-660" y="470" as="targetPoint"/>
                        <Array as="points">
                            <mxPoint x="-610" y="1271"/>
                        </Array>
                    </mxGeometry>
                </mxCell>
                <mxCell id="FFf9qLooeu-6CMNKy_Iy-50" value="Casa" style="swimlane;fontStyle=0;childLayout=stackLayout;horizontal=1;startSize=26;horizontalStack=0;resizeParent=1;resizeParentMax=0;resizeLast=0;collapsible=1;marginBottom=0;align=center;fontSize=14;" parent="1" vertex="1">
                    <mxGeometry x="-585" y="1228" width="160" height="86" as="geometry"/>
                </mxCell>
                <mxCell id="FFf9qLooeu-6CMNKy_Iy-51" value="id" style="text;strokeColor=none;fillColor=none;spacingLeft=4;spacingRight=4;overflow=hidden;rotatable=0;points=[[0,0.5],[1,0.5]];portConstraint=eastwest;fontSize=12;fontStyle=4" parent="FFf9qLooeu-6CMNKy_Iy-50" vertex="1">
                    <mxGeometry y="26" width="160" height="30" as="geometry"/>
                </mxCell>
                <mxCell id="FFf9qLooeu-6CMNKy_Iy-52" value="nombre" style="text;strokeColor=none;fillColor=none;spacingLeft=4;spacingRight=4;overflow=hidden;rotatable=0;points=[[0,0.5],[1,0.5]];portConstraint=eastwest;fontSize=12;" parent="FFf9qLooeu-6CMNKy_Iy-50" vertex="1">
                    <mxGeometry y="56" width="160" height="30" as="geometry"/>
                </mxCell>
                <mxCell id="FFf9qLooeu-6CMNKy_Iy-55" style="edgeStyle=orthogonalEdgeStyle;rounded=0;orthogonalLoop=1;jettySize=auto;html=1;endArrow=none;endFill=0;" parent="1" source="FFf9qLooeu-6CMNKy_Iy-54" target="FFf9qLooeu-6CMNKy_Iy-14" edge="1">
                    <mxGeometry relative="1" as="geometry">
                        <mxPoint x="50" y="1086" as="targetPoint"/>
                        <Array as="points">
                            <mxPoint x="-10" y="880"/>
                        </Array>
                    </mxGeometry>
                </mxCell>
                <mxCell id="FFf9qLooeu-6CMNKy_Iy-56" style="edgeStyle=orthogonalEdgeStyle;rounded=0;orthogonalLoop=1;jettySize=auto;html=1;endArrow=classic;endFill=1;" parent="1" source="FFf9qLooeu-6CMNKy_Iy-54" target="FFf9qLooeu-6CMNKy_Iy-46" edge="1">
                    <mxGeometry relative="1" as="geometry"/>
                </mxCell>
                <mxCell id="FFf9qLooeu-6CMNKy_Iy-54" value="reside" style="rhombus;whiteSpace=wrap;html=1;" parent="1" vertex="1">
                    <mxGeometry x="-50" y="1060" width="80" height="80" as="geometry"/>
                </mxCell>
                <mxCell id="FFf9qLooeu-6CMNKy_Iy-58" style="edgeStyle=orthogonalEdgeStyle;rounded=0;orthogonalLoop=1;jettySize=auto;html=1;endArrow=classic;endFill=1;" parent="1" source="FFf9qLooeu-6CMNKy_Iy-57" target="FFf9qLooeu-6CMNKy_Iy-50" edge="1">
                    <mxGeometry relative="1" as="geometry"/>
                </mxCell>
                <mxCell id="FFf9qLooeu-6CMNKy_Iy-59" style="edgeStyle=orthogonalEdgeStyle;rounded=0;orthogonalLoop=1;jettySize=auto;html=1;endArrow=none;endFill=0;entryX=0;entryY=0.5;entryDx=0;entryDy=0;" parent="1" source="FFf9qLooeu-6CMNKy_Iy-57" target="FFf9qLooeu-6CMNKy_Iy-47" edge="1">
                    <mxGeometry relative="1" as="geometry">
                        <mxPoint x="-130" y="1263" as="targetPoint"/>
                        <Array as="points">
                            <mxPoint x="-210" y="1271"/>
                            <mxPoint x="-210" y="1271"/>
                        </Array>
                    </mxGeometry>
                </mxCell>
                <mxCell id="FFf9qLooeu-6CMNKy_Iy-57" value="parte_de" style="rhombus;whiteSpace=wrap;html=1;" parent="1" vertex="1">
                    <mxGeometry x="-305" y="1231" width="80" height="80" as="geometry"/>
                </mxCell>
                <mxCell id="FFf9qLooeu-6CMNKy_Iy-60" value="Actividad" style="swimlane;fontStyle=0;childLayout=stackLayout;horizontal=1;startSize=26;horizontalStack=0;resizeParent=1;resizeParentMax=0;resizeLast=0;collapsible=1;marginBottom=0;align=center;fontSize=14;" parent="1" vertex="1">
                    <mxGeometry x="-310" y="947" width="160" height="176" as="geometry"/>
                </mxCell>
                <mxCell id="RTzOuYfyrBg2ibAIZVm3-9" value="id" style="text;strokeColor=none;fillColor=none;spacingLeft=4;spacingRight=4;overflow=hidden;rotatable=0;points=[[0,0.5],[1,0.5]];portConstraint=eastwest;fontSize=12;fontStyle=4" parent="FFf9qLooeu-6CMNKy_Iy-60" vertex="1">
                    <mxGeometry y="26" width="160" height="30" as="geometry"/>
                </mxCell>
                <mxCell id="FFf9qLooeu-6CMNKy_Iy-61" value="nombre" style="text;strokeColor=none;fillColor=none;spacingLeft=4;spacingRight=4;overflow=hidden;rotatable=0;points=[[0,0.5],[1,0.5]];portConstraint=eastwest;fontSize=12;" parent="FFf9qLooeu-6CMNKy_Iy-60" vertex="1">
                    <mxGeometry y="56" width="160" height="30" as="geometry"/>
                </mxCell>
                <mxCell id="FFf9qLooeu-6CMNKy_Iy-62" value="descripcion" style="text;strokeColor=none;fillColor=none;spacingLeft=4;spacingRight=4;overflow=hidden;rotatable=0;points=[[0,0.5],[1,0.5]];portConstraint=eastwest;fontSize=12;" parent="FFf9qLooeu-6CMNKy_Iy-60" vertex="1">
                    <mxGeometry y="86" width="160" height="30" as="geometry"/>
                </mxCell>
                <mxCell id="FFf9qLooeu-6CMNKy_Iy-63" value="fecha" style="text;strokeColor=none;fillColor=none;spacingLeft=4;spacingRight=4;overflow=hidden;rotatable=0;points=[[0,0.5],[1,0.5]];portConstraint=eastwest;fontSize=12;" parent="FFf9qLooeu-6CMNKy_Iy-60" vertex="1">
                    <mxGeometry y="116" width="160" height="30" as="geometry"/>
                </mxCell>
                <mxCell id="O4gCh91EaSXW-Slrrqmf-129" value="asistentes" style="text;strokeColor=none;fillColor=none;spacingLeft=4;spacingRight=4;overflow=hidden;rotatable=0;points=[[0,0.5],[1,0.5]];portConstraint=eastwest;fontSize=12;" parent="FFf9qLooeu-6CMNKy_Iy-60" vertex="1">
                    <mxGeometry y="146" width="160" height="30" as="geometry"/>
                </mxCell>
                <mxCell id="FFf9qLooeu-6CMNKy_Iy-65" style="edgeStyle=orthogonalEdgeStyle;rounded=0;orthogonalLoop=1;jettySize=auto;html=1;endArrow=none;endFill=0;" parent="1" source="FFf9qLooeu-6CMNKy_Iy-64" target="FFf9qLooeu-6CMNKy_Iy-14" edge="1">
                    <mxGeometry relative="1" as="geometry">
                        <Array as="points">
                            <mxPoint x="60" y="820"/>
                            <mxPoint x="60" y="820"/>
                        </Array>
                    </mxGeometry>
                </mxCell>
                <mxCell id="FFf9qLooeu-6CMNKy_Iy-66" style="edgeStyle=orthogonalEdgeStyle;rounded=0;orthogonalLoop=1;jettySize=auto;html=1;endArrow=none;endFill=0;" parent="1" source="FFf9qLooeu-6CMNKy_Iy-64" target="FFf9qLooeu-6CMNKy_Iy-60" edge="1">
                    <mxGeometry relative="1" as="geometry"/>
                </mxCell>
                <mxCell id="FFf9qLooeu-6CMNKy_Iy-64" value="participa" style="rhombus;whiteSpace=wrap;html=1;" parent="1" vertex="1">
                    <mxGeometry x="-270" y="780" width="80" height="80" as="geometry"/>
                </mxCell>
                <mxCell id="O4gCh91EaSXW-Slrrqmf-19" style="edgeStyle=orthogonalEdgeStyle;rounded=0;orthogonalLoop=1;jettySize=auto;html=1;endArrow=none;endFill=0;" parent="1" edge="1">
                    <mxGeometry relative="1" as="geometry">
                        <mxPoint x="-20" y="628" as="sourcePoint"/>
                    </mxGeometry>
                </mxCell>
                <mxCell id="O4gCh91EaSXW-Slrrqmf-26" style="edgeStyle=orthogonalEdgeStyle;rounded=0;orthogonalLoop=1;jettySize=auto;html=1;endArrow=classic;endFill=1;" parent="1" source="O4gCh91EaSXW-Slrrqmf-25" target="FFf9qLooeu-6CMNKy_Iy-1" edge="1">
                    <mxGeometry relative="1" as="geometry">
                        <Array as="points">
                            <mxPoint x="200" y="140"/>
                            <mxPoint x="200" y="140"/>
                        </Array>
                    </mxGeometry>
                </mxCell>
                <mxCell id="O4gCh91EaSXW-Slrrqmf-27" style="edgeStyle=orthogonalEdgeStyle;rounded=0;orthogonalLoop=1;jettySize=auto;html=1;endArrow=classic;endFill=1;" parent="1" source="O4gCh91EaSXW-Slrrqmf-25" target="FFf9qLooeu-6CMNKy_Iy-31" edge="1">
                    <mxGeometry relative="1" as="geometry">
                        <mxPoint x="-140" y="65" as="targetPoint"/>
                        <Array as="points">
                            <mxPoint x="20" y="140"/>
                            <mxPoint x="20" y="140"/>
                        </Array>
                    </mxGeometry>
                </mxCell>
                <mxCell id="O4gCh91EaSXW-Slrrqmf-25" value="imagen_personal" style="rhombus;whiteSpace=wrap;html=1;" parent="1" vertex="1">
                    <mxGeometry x="70" y="100" width="150" height="80" as="geometry"/>
                </mxCell>
                <mxCell id="O4gCh91EaSXW-Slrrqmf-87" style="edgeStyle=orthogonalEdgeStyle;rounded=0;orthogonalLoop=1;jettySize=auto;html=1;endArrow=none;endFill=0;exitX=0.5;exitY=1;exitDx=0;exitDy=0;" parent="1" source="O4gCh91EaSXW-Slrrqmf-88" target="FFf9qLooeu-6CMNKy_Iy-1" edge="1">
                    <mxGeometry relative="1" as="geometry">
                        <mxPoint x="300" y="-100" as="targetPoint"/>
                        <Array as="points">
                            <mxPoint x="320" y="120"/>
                        </Array>
                    </mxGeometry>
                </mxCell>
                <mxCell id="O4gCh91EaSXW-Slrrqmf-91" style="edgeStyle=orthogonalEdgeStyle;rounded=0;orthogonalLoop=1;jettySize=auto;html=1;endArrow=none;endFill=0;" parent="1" source="O4gCh91EaSXW-Slrrqmf-88" target="O4gCh91EaSXW-Slrrqmf-89" edge="1">
                    <mxGeometry relative="1" as="geometry"/>
                </mxCell>
                <mxCell id="O4gCh91EaSXW-Slrrqmf-88" value="es_de" style="rhombus;whiteSpace=wrap;html=1;" parent="1" vertex="1">
                    <mxGeometry x="280" y="-50" width="80" height="80" as="geometry"/>
                </mxCell>
                <mxCell id="O4gCh91EaSXW-Slrrqmf-89" value="nacionalidad" style="swimlane;fontStyle=0;childLayout=stackLayout;horizontal=1;startSize=26;horizontalStack=0;resizeParent=1;resizeParentMax=0;resizeLast=0;collapsible=1;marginBottom=0;align=center;fontSize=14;" parent="1" vertex="1">
                    <mxGeometry x="-20" y="-38" width="160" height="56" as="geometry"/>
                </mxCell>
                <mxCell id="O4gCh91EaSXW-Slrrqmf-90" value="nacionalidad" style="text;strokeColor=none;fillColor=none;spacingLeft=4;spacingRight=4;overflow=hidden;rotatable=0;points=[[0,0.5],[1,0.5]];portConstraint=eastwest;fontSize=12;fontStyle=4" parent="O4gCh91EaSXW-Slrrqmf-89" vertex="1">
                    <mxGeometry y="26" width="160" height="30" as="geometry"/>
                </mxCell>
                <mxCell id="O4gCh91EaSXW-Slrrqmf-142" value="puntuacion" style="text;strokeColor=none;fillColor=none;spacingLeft=4;spacingRight=4;overflow=hidden;rotatable=0;points=[[0,0.5],[1,0.5]];portConstraint=eastwest;fontSize=12;" parent="1" vertex="1">
                    <mxGeometry x="-375" y="785" width="75" height="20" as="geometry"/>
                </mxCell>
                <mxCell id="O4gCh91EaSXW-Slrrqmf-143" value="Ranking" style="swimlane;fontStyle=0;childLayout=stackLayout;horizontal=1;startSize=26;horizontalStack=0;resizeParent=1;resizeParentMax=0;resizeLast=0;collapsible=1;marginBottom=0;align=center;fontSize=14;" parent="1" vertex="1">
                    <mxGeometry x="-380" y="630" width="160" height="116" as="geometry"/>
                </mxCell>
                <mxCell id="RTzOuYfyrBg2ibAIZVm3-8" value="id" style="text;strokeColor=none;fillColor=none;spacingLeft=4;spacingRight=4;overflow=hidden;rotatable=0;points=[[0,0.5],[1,0.5]];portConstraint=eastwest;fontSize=12;fontStyle=4" parent="O4gCh91EaSXW-Slrrqmf-143" vertex="1">
                    <mxGeometry y="26" width="160" height="30" as="geometry"/>
                </mxCell>
                <mxCell id="O4gCh91EaSXW-Slrrqmf-144" value="puntuacion" style="text;strokeColor=none;fillColor=none;spacingLeft=4;spacingRight=4;overflow=hidden;rotatable=0;points=[[0,0.5],[1,0.5]];portConstraint=eastwest;fontSize=12;" parent="O4gCh91EaSXW-Slrrqmf-143" vertex="1">
                    <mxGeometry y="56" width="160" height="30" as="geometry"/>
                </mxCell>
                <mxCell id="O4gCh91EaSXW-Slrrqmf-146" value="actividades_realizadas" style="text;strokeColor=none;fillColor=none;spacingLeft=4;spacingRight=4;overflow=hidden;rotatable=0;points=[[0,0.5],[1,0.5]];portConstraint=eastwest;fontSize=12;" parent="O4gCh91EaSXW-Slrrqmf-143" vertex="1">
                    <mxGeometry y="86" width="160" height="30" as="geometry"/>
                </mxCell>
                <mxCell id="O4gCh91EaSXW-Slrrqmf-148" style="edgeStyle=orthogonalEdgeStyle;rounded=0;orthogonalLoop=1;jettySize=auto;html=1;endArrow=none;endFill=0;exitX=1;exitY=0.5;exitDx=0;exitDy=0;" parent="1" source="O4gCh91EaSXW-Slrrqmf-147" target="FFf9qLooeu-6CMNKy_Iy-14" edge="1">
                    <mxGeometry relative="1" as="geometry">
                        <Array as="points">
                            <mxPoint x="60" y="676"/>
                            <mxPoint x="60" y="676"/>
                        </Array>
                    </mxGeometry>
                </mxCell>
                <mxCell id="O4gCh91EaSXW-Slrrqmf-149" style="edgeStyle=orthogonalEdgeStyle;rounded=0;orthogonalLoop=1;jettySize=auto;html=1;endArrow=classic;endFill=1;" parent="1" source="O4gCh91EaSXW-Slrrqmf-147" target="O4gCh91EaSXW-Slrrqmf-143" edge="1">
                    <mxGeometry relative="1" as="geometry">
                        <Array as="points">
                            <mxPoint x="-170" y="676"/>
                            <mxPoint x="-170" y="676"/>
                        </Array>
                    </mxGeometry>
                </mxCell>
                <mxCell id="O4gCh91EaSXW-Slrrqmf-147" value="clasifica" style="rhombus;whiteSpace=wrap;html=1;" parent="1" vertex="1">
                    <mxGeometry x="-130" y="636" width="80" height="80" as="geometry"/>
                </mxCell>
                <mxCell id="nmJCja0T0oJo21-9fYm4-8" style="edgeStyle=orthogonalEdgeStyle;rounded=0;orthogonalLoop=1;jettySize=auto;html=1;" parent="1" source="nmJCja0T0oJo21-9fYm4-7" target="FFf9qLooeu-6CMNKy_Iy-31" edge="1">
                    <mxGeometry relative="1" as="geometry">
                        <Array as="points">
                            <mxPoint x="-610" y="140"/>
                        </Array>
                    </mxGeometry>
                </mxCell>
                <mxCell id="nmJCja0T0oJo21-9fYm4-7" value="imagen_casa" style="rhombus;whiteSpace=wrap;html=1;" parent="1" vertex="1">
                    <mxGeometry x="-660" y="423" width="100" height="80" as="geometry"/>
                </mxCell>
                <mxCell id="nmJCja0T0oJo21-9fYm4-10" style="edgeStyle=orthogonalEdgeStyle;rounded=0;orthogonalLoop=1;jettySize=auto;html=1;startArrow=none;startFill=0;endArrow=classic;endFill=1;" parent="1" source="nmJCja0T0oJo21-9fYm4-9" target="FFf9qLooeu-6CMNKy_Iy-31" edge="1">
                    <mxGeometry relative="1" as="geometry">
                        <Array as="points">
                            <mxPoint x="-465" y="170"/>
                        </Array>
                    </mxGeometry>
                </mxCell>
                <mxCell id="nmJCja0T0oJo21-9fYm4-11" style="edgeStyle=orthogonalEdgeStyle;rounded=0;orthogonalLoop=1;jettySize=auto;html=1;startArrow=none;startFill=0;endArrow=classic;endFill=1;" parent="1" source="nmJCja0T0oJo21-9fYm4-9" target="FFf9qLooeu-6CMNKy_Iy-60" edge="1">
                    <mxGeometry relative="1" as="geometry">
                        <Array as="points">
                            <mxPoint x="-465" y="1040"/>
                        </Array>
                    </mxGeometry>
                </mxCell>
                <mxCell id="nmJCja0T0oJo21-9fYm4-9" value="&lt;div&gt;imagen_actividad&lt;/div&gt;" style="rhombus;whiteSpace=wrap;html=1;" parent="1" vertex="1">
                    <mxGeometry x="-530" y="423" width="130" height="80" as="geometry"/>
                </mxCell>
                <mxCell id="Ze54EGar3hF_JNQqJty--2" style="edgeStyle=orthogonalEdgeStyle;rounded=0;orthogonalLoop=1;jettySize=auto;html=1;endArrow=none;endFill=0;" parent="1" source="Ze54EGar3hF_JNQqJty--1" target="FFf9qLooeu-6CMNKy_Iy-1" edge="1">
                    <mxGeometry relative="1" as="geometry">
                        <Array as="points">
                            <mxPoint x="440" y="10"/>
                        </Array>
                    </mxGeometry>
                </mxCell>
                <mxCell id="Ze54EGar3hF_JNQqJty--3" style="edgeStyle=orthogonalEdgeStyle;rounded=0;orthogonalLoop=1;jettySize=auto;html=1;endArrow=none;endFill=0;" parent="1" source="Ze54EGar3hF_JNQqJty--1" target="FFf9qLooeu-6CMNKy_Iy-1" edge="1">
                    <mxGeometry relative="1" as="geometry">
                        <Array as="points">
                            <mxPoint x="580" y="10"/>
                            <mxPoint x="580" y="130"/>
                        </Array>
                    </mxGeometry>
                </mxCell>
                <mxCell id="Ze54EGar3hF_JNQqJty--1" value="relacion" style="rhombus;whiteSpace=wrap;html=1;" parent="1" vertex="1">
                    <mxGeometry x="480" y="-30" width="80" height="80" as="geometry"/>
                </mxCell>
                <mxCell id="Ze54EGar3hF_JNQqJty--6" value="documento" style="swimlane;fontStyle=0;childLayout=stackLayout;horizontal=1;startSize=26;horizontalStack=0;resizeParent=1;resizeParentMax=0;resizeLast=0;collapsible=1;marginBottom=0;align=center;fontSize=14;" parent="1" vertex="1">
                    <mxGeometry x="820" y="-60" width="160" height="116" as="geometry"/>
                </mxCell>
                <mxCell id="Ze54EGar3hF_JNQqJty--7" value="ruta" style="text;strokeColor=none;fillColor=none;spacingLeft=4;spacingRight=4;overflow=hidden;rotatable=0;points=[[0,0.5],[1,0.5]];portConstraint=eastwest;fontSize=12;fontStyle=4" parent="Ze54EGar3hF_JNQqJty--6" vertex="1">
                    <mxGeometry y="26" width="160" height="30" as="geometry"/>
                </mxCell>
                <mxCell id="Ze54EGar3hF_JNQqJty--8" value="nombre" style="text;strokeColor=none;fillColor=none;spacingLeft=4;spacingRight=4;overflow=hidden;rotatable=0;points=[[0,0.5],[1,0.5]];portConstraint=eastwest;fontSize=12;" parent="Ze54EGar3hF_JNQqJty--6" vertex="1">
                    <mxGeometry y="56" width="160" height="30" as="geometry"/>
                </mxCell>
                <mxCell id="Ze54EGar3hF_JNQqJty--9" value="tamaÃ±o" style="text;strokeColor=none;fillColor=none;spacingLeft=4;spacingRight=4;overflow=hidden;rotatable=0;points=[[0,0.5],[1,0.5]];portConstraint=eastwest;fontSize=12;" parent="Ze54EGar3hF_JNQqJty--6" vertex="1">
                    <mxGeometry y="86" width="160" height="30" as="geometry"/>
                </mxCell>
                <mxCell id="RTzOuYfyrBg2ibAIZVm3-1" value="" style="endArrow=none;html=1;exitX=1;exitY=0;exitDx=0;exitDy=0;" parent="1" source="Ze54EGar3hF_JNQqJty--1" edge="1">
                    <mxGeometry width="50" height="50" relative="1" as="geometry">
                        <mxPoint x="540" y="10" as="sourcePoint"/>
                        <mxPoint x="540" y="-50" as="targetPoint"/>
                    </mxGeometry>
                </mxCell>
                <mxCell id="RTzOuYfyrBg2ibAIZVm3-2" value="" style="ellipse;whiteSpace=wrap;html=1;aspect=fixed;" parent="1" vertex="1">
                    <mxGeometry x="535" y="-60" width="10" height="10" as="geometry"/>
                </mxCell>
                <mxCell id="RTzOuYfyrBg2ibAIZVm3-3" value="Tipo" style="text;html=1;strokeColor=none;fillColor=none;align=center;verticalAlign=middle;whiteSpace=wrap;rounded=0;" parent="1" vertex="1">
                    <mxGeometry x="520" y="-80" width="40" height="20" as="geometry"/>
                </mxCell>
                <mxCell id="RTzOuYfyrBg2ibAIZVm3-4" value="" style="endArrow=none;html=1;entryX=0;entryY=0;entryDx=0;entryDy=0;" parent="1" target="FFf9qLooeu-6CMNKy_Iy-64" edge="1">
                    <mxGeometry width="50" height="50" relative="1" as="geometry">
                        <mxPoint x="-290" y="800" as="sourcePoint"/>
                        <mxPoint x="-240" y="770" as="targetPoint"/>
                    </mxGeometry>
                </mxCell>
                <mxCell id="RTzOuYfyrBg2ibAIZVm3-5" value="" style="ellipse;whiteSpace=wrap;html=1;aspect=fixed;" parent="1" vertex="1">
                    <mxGeometry x="-300" y="795" width="10" height="10" as="geometry"/>
                </mxCell>
                <mxCell id="RTzOuYfyrBg2ibAIZVm3-10" value="usuario" style="swimlane;fontStyle=0;childLayout=stackLayout;horizontal=1;startSize=26;horizontalStack=0;resizeParent=1;resizeParentMax=0;resizeLast=0;collapsible=1;marginBottom=0;align=center;fontSize=14;" parent="1" vertex="1">
                    <mxGeometry x="980" y="140" width="160" height="386" as="geometry"/>
                </mxCell>
                <mxCell id="RTzOuYfyrBg2ibAIZVm3-11" value="usuario" style="text;strokeColor=none;fillColor=none;spacingLeft=4;spacingRight=4;overflow=hidden;rotatable=0;points=[[0,0.5],[1,0.5]];portConstraint=eastwest;fontSize=12;fontStyle=4" parent="RTzOuYfyrBg2ibAIZVm3-10" vertex="1">
                    <mxGeometry y="26" width="160" height="30" as="geometry"/>
                </mxCell>
                <mxCell id="RTzOuYfyrBg2ibAIZVm3-12" value="contraseÃ±a" style="text;strokeColor=none;fillColor=none;spacingLeft=4;spacingRight=4;overflow=hidden;rotatable=0;points=[[0,0.5],[1,0.5]];portConstraint=eastwest;fontSize=12;" parent="RTzOuYfyrBg2ibAIZVm3-10" vertex="1">
                    <mxGeometry y="56" width="160" height="30" as="geometry"/>
                </mxCell>
                <mxCell id="RTzOuYfyrBg2ibAIZVm3-13" value="nombre" style="text;strokeColor=none;fillColor=none;spacingLeft=4;spacingRight=4;overflow=hidden;rotatable=0;points=[[0,0.5],[1,0.5]];portConstraint=eastwest;fontSize=12;" parent="RTzOuYfyrBg2ibAIZVm3-10" vertex="1">
                    <mxGeometry y="86" width="160" height="30" as="geometry"/>
                </mxCell>
                <mxCell id="RTzOuYfyrBg2ibAIZVm3-14" value="rol" style="text;strokeColor=none;fillColor=none;spacingLeft=4;spacingRight=4;overflow=hidden;rotatable=0;points=[[0,0.5],[1,0.5]];portConstraint=eastwest;fontSize=12;" parent="RTzOuYfyrBg2ibAIZVm3-10" vertex="1">
                    <mxGeometry y="116" width="160" height="30" as="geometry"/>
                </mxCell>
                <mxCell id="RTzOuYfyrBg2ibAIZVm3-15" value="permiso_residentes" style="text;strokeColor=none;fillColor=none;spacingLeft=4;spacingRight=4;overflow=hidden;rotatable=0;points=[[0,0.5],[1,0.5]];portConstraint=eastwest;fontSize=12;" parent="RTzOuYfyrBg2ibAIZVm3-10" vertex="1">
                    <mxGeometry y="146" width="160" height="30" as="geometry"/>
                </mxCell>
                <mxCell id="RTzOuYfyrBg2ibAIZVm3-16" value="permiso_socios" style="text;strokeColor=none;fillColor=none;spacingLeft=4;spacingRight=4;overflow=hidden;rotatable=0;points=[[0,0.5],[1,0.5]];portConstraint=eastwest;fontSize=12;" parent="RTzOuYfyrBg2ibAIZVm3-10" vertex="1">
                    <mxGeometry y="176" width="160" height="30" as="geometry"/>
                </mxCell>
                <mxCell id="RTzOuYfyrBg2ibAIZVm3-17" value="permiso_colaboradores" style="text;strokeColor=none;fillColor=none;spacingLeft=4;spacingRight=4;overflow=hidden;rotatable=0;points=[[0,0.5],[1,0.5]];portConstraint=eastwest;fontSize=12;" parent="RTzOuYfyrBg2ibAIZVm3-10" vertex="1">
                    <mxGeometry y="206" width="160" height="30" as="geometry"/>
                </mxCell>
                <mxCell id="RTzOuYfyrBg2ibAIZVm3-18" value="permiso_voluntarios" style="text;strokeColor=none;fillColor=none;spacingLeft=4;spacingRight=4;overflow=hidden;rotatable=0;points=[[0,0.5],[1,0.5]];portConstraint=eastwest;fontSize=12;" parent="RTzOuYfyrBg2ibAIZVm3-10" vertex="1">
                    <mxGeometry y="236" width="160" height="30" as="geometry"/>
                </mxCell>
                <mxCell id="RTzOuYfyrBg2ibAIZVm3-19" value="permiso_personas" style="text;strokeColor=none;fillColor=none;spacingLeft=4;spacingRight=4;overflow=hidden;rotatable=0;points=[[0,0.5],[1,0.5]];portConstraint=eastwest;fontSize=12;" parent="RTzOuYfyrBg2ibAIZVm3-10" vertex="1">
                    <mxGeometry y="266" width="160" height="30" as="geometry"/>
                </mxCell>
                <mxCell id="RTzOuYfyrBg2ibAIZVm3-20" value="permiso_alojamiento" style="text;strokeColor=none;fillColor=none;spacingLeft=4;spacingRight=4;overflow=hidden;rotatable=0;points=[[0,0.5],[1,0.5]];portConstraint=eastwest;fontSize=12;" parent="RTzOuYfyrBg2ibAIZVm3-10" vertex="1">
                    <mxGeometry y="296" width="160" height="30" as="geometry"/>
                </mxCell>
                <mxCell id="RTzOuYfyrBg2ibAIZVm3-24" value="permiso_estadisticas" style="text;strokeColor=none;fillColor=none;spacingLeft=4;spacingRight=4;overflow=hidden;rotatable=0;points=[[0,0.5],[1,0.5]];portConstraint=eastwest;fontSize=12;" parent="RTzOuYfyrBg2ibAIZVm3-10" vertex="1">
                    <mxGeometry y="326" width="160" height="30" as="geometry"/>
                </mxCell>
                <mxCell id="RTzOuYfyrBg2ibAIZVm3-25" value="permiso_actividades" style="text;strokeColor=none;fillColor=none;spacingLeft=4;spacingRight=4;overflow=hidden;rotatable=0;points=[[0,0.5],[1,0.5]];portConstraint=eastwest;fontSize=12;" parent="RTzOuYfyrBg2ibAIZVm3-10" vertex="1">
                    <mxGeometry y="356" width="160" height="30" as="geometry"/>
                </mxCell>
                <mxCell id="RTzOuYfyrBg2ibAIZVm3-23" style="edgeStyle=orthogonalEdgeStyle;rounded=0;orthogonalLoop=1;jettySize=auto;html=1;" parent="1" source="RTzOuYfyrBg2ibAIZVm3-21" target="RTzOuYfyrBg2ibAIZVm3-10" edge="1">
                    <mxGeometry relative="1" as="geometry">
                        <Array as="points">
                            <mxPoint x="970" y="190"/>
                            <mxPoint x="970" y="190"/>
                        </Array>
                    </mxGeometry>
                </mxCell>
                <mxCell id="RTzOuYfyrBg2ibAIZVm3-21" value="asociado" style="rhombus;whiteSpace=wrap;html=1;" parent="1" vertex="1">
                    <mxGeometry x="810" y="150" width="80" height="80" as="geometry"/>
                </mxCell>
            </root>
        </mxGraphModel>
    </diagram>
</mxfile>